# xmcd
#
# Track frame offsets:
#	150
#	11575
#	23640
#	35384
#	48125
#	59150
#	71938
#	84702
#	98014
#	110553
#	122030
#	133881
#	147701
#	159619
#	170012
#	182290
#	192657
#	205550
#	217247
#	228788
#	241073
#
# Disc length: 3365 seconds
#
# Revision: 1
# Processed by: cddbd v1.5.1PL2 Copyright (c) Steve Scherf et al.
# Submitted via: audiograbber 1.83.01
#
DISCID=330d2315
DTITLE=Ray Charles - '49 In The Begining '52 - 1
DYEAR=1949
DGENRE=R and B
TTITLE0=Confession Blues
TTITLE1=I Love You I Love You (I Will Never Let You Go)
TTITLE2=How Long Blues
TTITLE3=Blues Before Sunrise
TTITLE4=A Sentimental Blues
TTITLE5=You'll Never Miss the Water
TTITLE6=Can Anyone Ask for More
TTITLE7=Alone In This City
TTITLE8=Rockn' Chair Blues
TTITLE9=Let's Have a Ball
TTITLE10=If I Give You My Love
TTITLE11=This Love of Mine
TTITLE12=Can't You See Darling
TTITLE13=Sittin' On Top of the World
TTITLE14=I've Had My Fun
TTITLE15=Ain't That Fine
TTITLE16=Don't Put All Your Dreams in One Basket
TTITLE17=See The Rider
TTITLE18=What Have I Done
TTITLE19=Honey Honey
TTITLE20=She's On The Ball
EXTD=disk one of two: Ray Charles pre Atlantic Recordings
EXTT0=
EXTT1=
EXTT2=
EXTT3=
EXTT4=
EXTT5=
EXTT6=
EXTT7=
EXTT8=
EXTT9=
EXTT10=
EXTT11=
EXTT12=
EXTT13=
EXTT14=
EXTT15=
EXTT16=
EXTT17=
EXTT18=
EXTT19=
EXTT20=
PLAYORDER=
